<svg width="16" height="16" viewBox="0 0 16 16" fill="none" xmlns="http://www.w3.org/2000/svg">
<path d="M9.41 7.99994L15.71 1.70994C15.8983 1.52164 16.0041 1.26624 16.0041 0.999941C16.0041 0.73364 15.8983 0.478245 15.71 0.289941C15.5217 0.101638 15.2663 -0.00415039 15 -0.00415039C14.7337 -0.00415039 14.4783 0.101638 14.29 0.289941L8 6.58994L1.71 0.289941C1.5217 0.101638 1.2663 -0.00415015 1 -0.00415015C0.733698 -0.00415015 0.478304 0.101638 0.29 0.289941C0.101696 0.478245 -0.0040915 0.73364 -0.0040915 0.999941C-0.0040915 1.26624 0.101696 1.52164 0.29 1.70994L6.59 7.99994L0.29 14.2899C0.196272 14.3829 0.121877 14.4935 0.0711088 14.6154C0.0203401 14.7372 -0.00579834 14.8679 -0.00579834 14.9999C-0.00579834 15.132 0.0203401 15.2627 0.0711088 15.3845C0.121877 15.5064 0.196272 15.617 0.29 15.7099C0.382963 15.8037 0.493564 15.8781 0.615423 15.9288C0.737282 15.9796 0.867988 16.0057 1 16.0057C1.13201 16.0057 1.26272 15.9796 1.38458 15.9288C1.50644 15.8781 1.61704 15.8037 1.71 15.7099L8 9.40994L14.29 15.7099C14.383 15.8037 14.4936 15.8781 14.6154 15.9288C14.7373 15.9796 14.868 16.0057 15 16.0057C15.132 16.0057 15.2627 15.9796 15.3846 15.9288C15.5064 15.8781 15.617 15.8037 15.71 15.7099C15.8037 15.617 15.8781 15.5064 15.9289 15.3845C15.9797 15.2627 16.0058 15.132 16.0058 14.9999C16.0058 14.8679 15.9797 14.7372 15.9289 14.6154C15.8781 14.4935 15.8037 14.3829 15.71 14.2899L9.41 7.99994Z" fill="#FF8577"/>
</svg>
