<svg width="22" height="22" viewBox="0 0 22 22" fill="none" xmlns="http://www.w3.org/2000/svg">
<path d="M11 1.72168C11.0517 1.72168 11.094 1.73735 11.1211 1.75586C11.1417 1.76998 11.1696 1.79586 11.1904 1.86035L13.1172 7.85547L13.3398 8.54883H20.3389C20.4063 8.54883 20.44 8.56765 20.46 8.58301C20.4859 8.603 20.5133 8.63796 20.5293 8.68652C20.5453 8.73525 20.5442 8.78 20.5352 8.81152C20.5282 8.83569 20.5123 8.87023 20.458 8.91016L15.374 12.6445L14.793 13.0713L15.0137 13.7568L16.9482 19.7773C16.969 19.842 16.9616 19.8797 16.9531 19.9033C16.942 19.9341 16.9167 19.9709 16.875 20.001C16.8333 20.031 16.7906 20.043 16.7578 20.0439C16.7327 20.0446 16.6945 20.0403 16.6396 20L11.5918 16.292L11 15.8574L10.4082 16.292L5.36035 20C5.30547 20.0403 5.26725 20.0446 5.24219 20.0439C5.20943 20.043 5.16671 20.031 5.125 20.001C5.08325 19.9709 5.05805 19.9341 5.04688 19.9033C5.03835 19.8797 5.03098 19.842 5.05176 19.7773L6.98633 13.7568L7.20703 13.0713L6.62598 12.6445L1.54199 8.91016C1.48774 8.87023 1.47181 8.83569 1.46484 8.81152C1.45577 8.78 1.45473 8.73525 1.4707 8.68652C1.48669 8.63796 1.51412 8.603 1.54004 8.58301C1.56 8.56765 1.5937 8.54883 1.66113 8.54883H8.66016L8.88281 7.85547L10.8096 1.86035C10.8304 1.79586 10.8583 1.76998 10.8789 1.75586C10.906 1.73735 10.9483 1.72168 11 1.72168Z" fill="#F5C000" stroke="black" stroke-width="2"/>
</svg>
