<!-- icon666.com - MILLIONS OF FREE VECTOR ICONS --><svg enable-background="new 0 0 24 24" viewBox="0 0 24 24" xmlns="http://www.w3.org/2000/svg"><path d="m24 21.25v-18.5c0-1.517-1.233-2.75-2.75-2.75h-18.5c-1.517 0-2.75 1.233-2.75 2.75v18.5c0 1.517 1.233 2.75 2.75 2.75h18.5c1.517 0 2.75-1.233 2.75-2.75z" fill="#00bcd4"></path><path d="m16 17.25c0 .965-.785 1.75-1.75 1.75h-4.5c-.965 0-1.75-.785-1.75-1.75v-10.5c0-.965.785-1.75 1.75-1.75h4.5c.965 0 1.75.785 1.75 1.75z" fill="#fafafa"></path><path d="m13 8h-2c-.553 0-1 .447-1 1s.447 1 1 1h2c.553 0 1-.447 1-1s-.447-1-1-1z" fill="#0097a7"></path><path d="m12 0h-9.25c-1.517 0-2.75 1.233-2.75 2.75v18.5c0 1.517 1.233 2.75 2.75 2.75h9.25v-5h-2.25c-.965 0-1.75-.785-1.75-1.75v-10.5c0-.965.785-1.75 1.75-1.75h2.25z" fill="#00a4b9"></path><path d="m12 5h-2.25c-.965 0-1.75.785-1.75 1.75v10.5c0 .965.785 1.75 1.75 1.75h2.25v-9h-1c-.553 0-1-.447-1-1s.447-1 1-1h1z" fill="#dadada"></path><path d="m12 8h-1c-.553 0-1 .447-1 1s.447 1 1 1h1z" fill="#008391"></path></svg>